<?xml version="1.0" encoding="UTF-8"?><svg id="uuid-69c83796-7888-4c5c-b39e-14e9e48b3870" xmlns="http://www.w3.org/2000/svg" viewBox="0 0 1920 840"><defs><style>.uuid-e78b573c-1da3-414e-b517-a8af4c28426a,.uuid-9d24f5b9-6777-4df6-a237-ed112fe4b956{fill:#0057e7;}.uuid-9d24f5b9-6777-4df6-a237-ed112fe4b956{fill-rule:evenodd;}</style></defs><path class="uuid-e78b573c-1da3-414e-b517-a8af4c28426a" d="M870.75,254.32c-1.98,0-3.69.7-5.14,2.09-1.46,1.4-2.18,3.08-2.18,5.06v46.04h-65.75v-46.04c0-1.98-.7-3.66-2.09-5.06-1.4-1.4-3.08-2.09-5.06-2.09-2.21,0-4.01.7-5.41,2.09-1.4,1.4-2.09,3.08-2.09,5.06v107.78c0,1.98.67,3.66,2.01,5.06,1.34,1.4,3.11,2.09,5.32,2.09,1.98,0,3.69-.7,5.14-2.09,1.45-1.4,2.18-3.08,2.18-5.06v-48.14h65.75v48.14c0,1.98.7,3.66,2.09,5.06s3.08,2.09,5.06,2.09c2.21,0,4.01-.7,5.41-2.09s2.09-3.08,2.09-5.06v-107.78c0-1.98-.67-3.66-2.01-5.06-1.34-1.4-3.11-2.09-5.32-2.09Z"/><path class="uuid-e78b573c-1da3-414e-b517-a8af4c28426a" d="M991.61,253.79c-2.33,0-4.3,1.11-5.93,3.31l-33.09,46.79-34.23-46.97c-1.51-2.09-3.43-3.14-5.76-3.14-1.63,0-3.29.64-4.97,1.92-1.69,1.28-2.53,2.96-2.53,5.06,0,.81.17,1.66.52,2.53.35.87.87,1.77,1.57,2.7l38.02,51.6v51.65c0,1.98.67,3.66,2.01,5.06,1.34,1.4,3.05,2.09,5.14,2.09,1.86,0,3.46-.7,4.8-2.09,1.34-1.4,2.01-3.08,2.01-5.06v-50.78l38.19-53.34c.46-.7.78-1.4.96-2.09.17-.7.26-1.45.26-2.27,0-1.86-.67-3.49-2.01-4.88-1.34-1.4-2.99-2.09-4.97-2.09Z"/><path class="uuid-e78b573c-1da3-414e-b517-a8af4c28426a" d="M1090.76,259.03c-5.17-3.14-10.9-4.71-17.18-4.71h-40.81c-1.98,0-3.66.7-5.06,2.09s-2.09,3.08-2.09,5.06v107.78c0,1.98.64,3.66,1.92,5.06,1.28,1.4,2.96,2.09,5.06,2.09,1.98,0,3.6-.7,4.88-2.09,1.28-1.4,1.92-3.08,1.92-5.06v-41.68h34.18c6.28,0,12-1.66,17.18-4.97,5.17-3.31,9.24-7.76,12.21-13.34,2.96-5.58,4.45-11.8,4.45-18.66s-1.48-13.19-4.45-18.66c-2.97-5.46-7.04-9.77-12.21-12.91ZM1090.67,302.36c-1.74,3.55-4.1,6.37-7.06,8.46-2.96,2.09-6.31,3.14-10.03,3.14h-34.18v-46.04h34.18c3.72,0,7.06.99,10.03,2.97,2.96,1.98,5.32,4.68,7.06,8.11,1.74,3.43,2.62,7.3,2.62,11.6s-.87,8.23-2.62,11.77Z"/><path class="uuid-e78b573c-1da3-414e-b517-a8af4c28426a" d="M1145.95,376.4h62.09c1.98,0,3.66-.64,5.06-1.92,1.4-1.28,2.09-2.9,2.09-4.88,0-1.74-.7-3.31-2.09-4.71-1.4-1.4-3.08-2.09-5.06-2.09h-54.59v-42.21h46.74c1.98,0,3.66-.61,5.06-1.83s2.09-2.82,2.09-4.8c0-2.09-.7-3.78-2.09-5.06-1.4-1.28-3.08-1.92-5.06-1.92h-46.74v-39.07h54.59c1.98,0,3.66-.61,5.06-1.83,1.4-1.22,2.09-2.82,2.09-4.8s-.7-3.63-2.09-4.97c-1.4-1.34-3.08-2.01-5.06-2.01h-62.09c-1.98,0-3.66.7-5.06,2.09s-2.09,3.08-2.09,5.06v107.78c0,1.98.7,3.66,2.09,5.06s3.08,2.09,5.06,2.09Z"/><path class="uuid-e78b573c-1da3-414e-b517-a8af4c28426a" d="M1381.05,254.32c-2.21,0-4.01.7-5.41,2.09-1.4,1.4-2.09,3.08-2.09,5.06v107.78c0,1.98.67,3.66,2.01,5.06,1.34,1.4,3.11,2.09,5.32,2.09,1.98,0,3.69-.7,5.15-2.09,1.45-1.4,2.18-3.08,2.18-5.06v-107.78c0-1.98-.7-3.66-2.09-5.06s-3.08-2.09-5.06-2.09Z"/><path class="uuid-e78b573c-1da3-414e-b517-a8af4c28426a" d="M1521.01,270.54c-5.29-5.7-11.51-10.12-18.66-13.25-7.15-3.14-15.03-4.71-23.63-4.71s-16.31,1.57-23.46,4.71c-7.15,3.14-13.37,7.56-18.66,13.25-5.29,5.7-9.36,12.36-12.21,19.97-2.85,7.62-4.27,15.9-4.27,24.85s1.42,17.24,4.27,24.85c2.85,7.62,6.92,14.27,12.21,19.97,5.29,5.7,11.51,10.12,18.66,13.25,7.15,3.14,14.97,4.71,23.46,4.71s16.48-1.57,23.63-4.71c7.15-3.14,13.37-7.56,18.66-13.25,5.29-5.7,9.39-12.35,12.3-19.97,2.9-7.61,4.36-15.9,4.36-24.85s-1.45-17.24-4.36-24.85c-2.91-7.61-7.01-14.27-12.3-19.97ZM1516.91,340.56c-3.72,7.39-8.87,13.17-15.43,17.35-6.57,4.19-14.16,6.28-22.76,6.28s-16.02-2.09-22.59-6.28c-6.57-4.19-11.71-9.97-15.43-17.35-3.72-7.38-5.58-15.78-5.58-25.2s1.86-17.96,5.58-25.29c3.72-7.33,8.86-13.08,15.43-17.27,6.57-4.19,14.1-6.28,22.59-6.28s16.19,2.09,22.76,6.28c6.57,4.19,11.71,9.97,15.43,17.35,3.72,7.38,5.58,15.78,5.58,25.2s-1.86,17.82-5.58,25.2Z"/><path class="uuid-e78b573c-1da3-414e-b517-a8af4c28426a" d="M1664.45,256.23c-1.16-1.28-2.73-1.92-4.71-1.92-1.86,0-3.4.64-4.62,1.92-1.22,1.28-1.83,2.85-1.83,4.71v90.36l-71.33-94.37c-.58-.93-1.43-1.6-2.53-2.01-1.11-.41-2.18-.61-3.23-.61-1.86,0-3.49.64-4.88,1.92-1.4,1.28-2.09,3.02-2.09,5.23v108.48c0,1.86.58,3.4,1.74,4.62,1.16,1.22,2.73,1.83,4.71,1.83s3.57-.61,4.8-1.83c1.22-1.22,1.83-2.76,1.83-4.62v-89.91l71.16,94.1c.58.7,1.4,1.25,2.44,1.66,1.05.41,2.03.61,2.97.61,2.09,0,3.84-.67,5.23-2.01,1.4-1.34,2.09-3.11,2.09-5.32v-108.13c0-1.86-.58-3.43-1.74-4.71Z"/><path class="uuid-e78b573c-1da3-414e-b517-a8af4c28426a" d="M861.68,463.6h-81.1c-1.98,0-3.66.61-5.06,1.83s-2.09,2.82-2.09,4.8.7,3.61,2.09,4.88c1.4,1.28,3.08,1.92,5.06,1.92h33.14v101.5c0,1.98.67,3.66,2.01,5.06,1.34,1.4,3.11,2.09,5.32,2.09s4.01-.7,5.41-2.09,2.09-3.08,2.09-5.06v-101.5h33.14c1.98,0,3.66-.61,5.06-1.83,1.4-1.22,2.09-2.82,2.09-4.8s-.7-3.6-2.09-4.88c-1.4-1.28-3.08-1.92-5.06-1.92Z"/><path class="uuid-e78b573c-1da3-414e-b517-a8af4c28426a" d="M967.54,477.2c1.98,0,3.66-.61,5.06-1.83,1.4-1.22,2.09-2.82,2.09-4.8s-.7-3.63-2.09-4.97c-1.4-1.34-3.08-2.01-5.06-2.01h-62.09c-1.98,0-3.66.7-5.06,2.09-1.4,1.4-2.09,3.08-2.09,5.06v107.78c0,1.98.7,3.66,2.09,5.06,1.4,1.4,3.08,2.09,5.06,2.09h62.09c1.98,0,3.66-.64,5.06-1.92,1.4-1.28,2.09-2.9,2.09-4.88,0-1.74-.7-3.31-2.09-4.71-1.4-1.4-3.08-2.09-5.06-2.09h-54.59v-42.21h46.74c1.98,0,3.66-.61,5.06-1.83,1.4-1.22,2.09-2.82,2.09-4.8,0-2.09-.7-3.78-2.09-5.06-1.4-1.28-3.08-1.92-5.06-1.92h-46.74v-39.07h54.59Z"/><path class="uuid-e78b573c-1da3-414e-b517-a8af4c28426a" d="M1092.15,565.28c-1.69-.23-3.34.06-4.97.87-3.84,2.44-7.97,4.3-12.38,5.58-4.42,1.28-9.01,1.92-13.78,1.92-6.63,0-12.76-1.1-18.4-3.31-5.64-2.21-10.58-5.43-14.82-9.68-4.25-4.24-7.59-9.39-10.03-15.43-2.44-6.04-3.66-12.91-3.66-20.58,0-7.09,1.16-13.6,3.49-19.53,2.32-5.93,5.58-11.07,9.77-15.43,4.19-4.36,9.13-7.7,14.82-10.03,5.7-2.32,11.97-3.49,18.84-3.49,4.88,0,9.53.67,13.95,2.01,4.42,1.34,8.55,3.17,12.38,5.49,1.63.81,3.25,1.13,4.88.96,1.63-.17,2.97-.96,4.01-2.35,1.4-1.86,1.92-3.84,1.57-5.93-.35-2.09-1.51-3.66-3.49-4.71-4.77-3.02-10-5.32-15.7-6.89-5.7-1.57-11.57-2.35-17.61-2.35-8.84,0-17,1.54-24.5,4.62-7.5,3.08-14.04,7.41-19.62,12.99-5.58,5.58-9.94,12.18-13.08,19.79-3.14,7.62-4.71,15.9-4.71,24.85,0,9.77,1.63,18.52,4.88,26.25,3.25,7.73,7.76,14.3,13.52,19.71,5.76,5.41,12.35,9.57,19.79,12.47,7.44,2.9,15.35,4.36,23.72,4.36,3.95,0,7.94-.41,11.95-1.22s7.88-1.92,11.6-3.31c3.72-1.4,7.03-2.96,9.94-4.71,1.86-1.05,2.99-2.59,3.4-4.62.41-2.03-.15-3.98-1.66-5.84-1.05-1.4-2.41-2.21-4.1-2.44Z"/><path class="uuid-e78b573c-1da3-414e-b517-a8af4c28426a" d="M1215.19,463.6c-1.98,0-3.69.7-5.15,2.09-1.45,1.4-2.18,3.08-2.18,5.06v46.04h-65.75v-46.04c0-1.98-.7-3.66-2.09-5.06-1.4-1.4-3.08-2.09-5.06-2.09-2.21,0-4.01.7-5.41,2.09-1.4,1.4-2.09,3.08-2.09,5.06v107.78c0,1.98.67,3.66,2.01,5.06,1.34,1.4,3.11,2.09,5.32,2.09,1.98,0,3.69-.7,5.15-2.09,1.45-1.4,2.18-3.08,2.18-5.06v-48.14h65.75v48.14c0,1.98.7,3.66,2.09,5.06s3.08,2.09,5.06,2.09c2.21,0,4.01-.7,5.41-2.09,1.4-1.4,2.09-3.08,2.09-5.06v-107.78c0-1.98-.67-3.66-2.01-5.06-1.34-1.4-3.11-2.09-5.32-2.09Z"/><path class="uuid-e78b573c-1da3-414e-b517-a8af4c28426a" d="M1328.01,317.52c4.92-6.9,7.38-15.1,7.38-24.6,0-6.45-1.13-12.34-3.39-17.69-2.26-5.34-5.64-9.78-10.14-13.32-4.5-3.53-10.05-5.81-16.67-6.83-1.53-.28-3.11-.47-4.75-.55-1.64-.09-3.05-.13-4.24-.13h-41.74c-3.6,0-6.52,2.92-6.52,6.52v108.58c0,3.9,3.16,7.05,7.05,7.05h0c3.9,0,7.05-3.16,7.05-7.05v-38.08h38.71l19.99,41.25c1.15,2.37,3.55,3.88,6.19,3.88h0c5.08,0,8.41-5.32,6.18-9.89l-18.77-38.5c5.66-2.31,10.23-5.84,13.66-10.65ZM1262.04,319.86v-53.87h33.13c1.2,0,2.57.06,4.11.19,1.54.13,3.01.35,4.4.66,4.35,1.01,7.87,2.85,10.59,5.53,2.71,2.68,4.71,5.83,6,9.45,1.29,3.62,1.94,7.32,1.94,11.11s-.65,7.48-1.94,11.11c-1.29,3.62-3.29,6.77-6,9.45-2.71,2.68-6.24,4.52-10.59,5.53-1.39.32-2.85.54-4.4.66-1.54.13-2.92.19-4.11.19h-33.13Z"/><path class="uuid-9d24f5b9-6777-4df6-a237-ed112fe4b956" d="M464.09,209.07c-7.95-8.61-19.06-14.32-31.59-15.3-12.71-1.01-24.84,2.52-34.32,11.16-7.41,6.77-13.12,16.64-16.08,29.89-2.61-.6-5.3-.99-8.03-1.2-10.37-.81-21.32,1.12-31.28,5.57h-.02c-9.98,4.43-19,11.38-25.54,20.56-8.45,11.88-12.71,27.39-9.5,45.93.35,2.05.81,4.14,1.35,6.25l.19.72c-17.26,3.5-31.07,11.14-40.57,20.95-6.66,6.87-11.22,14.82-13.41,23.14-2.22,8.45-2.01,17.3.93,25.83,5.01,14.61,18.01,28.26,40.39,37.38-22.4,9.11-35.38,22.77-40.39,37.38-2.94,8.53-3.15,17.37-.93,25.83,2.19,8.34,6.75,16.27,13.41,23.14,9.5,9.81,23.31,17.45,40.57,20.95l-.19.72c-.56,2.11-1.01,4.2-1.35,6.25-3.23,18.61.91,34.36,9.23,46.43,6.38,9.29,15.24,16.35,25.11,20.86,9.87,4.51,20.76,6.48,31.23,5.57,3.02-.27,6-.75,8.9-1.51,3.04,13.48,8.94,23.43,16.58,30.14h0c9.79,8.59,22.27,11.82,35.29,10.35,12.23-1.37,22.93-7.18,30.57-15.73,7.64-8.53,12.21-19.81,12.21-32.12V241.77h.02c0-12.58-4.82-24.09-12.77-32.7ZM467.39,598.21c0,9.91-3.68,18.98-9.81,25.83-6.11,6.85-14.72,11.51-24.57,12.61-10.45,1.16-20.37-1.33-28.03-8.07-6.4-5.61-11.32-14.24-13.81-26.21h0c6.5-3.02,12.42-7.47,17.3-13.37,1.66-2.01,1.35-4.99-.68-6.64-2.01-1.66-4.99-1.35-6.64.68-7.37,9-17.72,13.72-28.67,14.66-8.88.77-18.11-.89-26.49-4.72-8.38-3.83-15.86-9.81-21.26-17.64-7-10.16-10.45-23.53-7.68-39.49.33-1.92.74-3.75,1.18-5.48.14-.54.29-1.08.44-1.64,9.54,1.01,19.97.81,31.15-.87,2.59-.39,4.37-2.79,3.99-5.38-.39-2.59-2.79-4.37-5.38-3.99-11.7,1.76-22.46,1.78-32.1.41-.17-.04-.35-.06-.52-.08-17.45-2.59-31.21-9.71-40.3-19.1-5.51-5.69-9.27-12.19-11.05-18.96-1.76-6.66-1.59-13.62.74-20.35,5.01-14.55,20.04-28.17,47.34-35.89,2.52-.7,3.99-3.31,3.27-5.82-.46-1.66-1.76-2.86-3.31-3.29-27.28-7.72-42.29-21.32-47.3-35.89-2.32-6.73-2.48-13.7-.74-20.35,1.78-6.77,5.53-13.27,11.05-18.96,9.09-9.38,22.83-16.5,40.3-19.1.17-.02.37-.04.54-.08,9.63-1.37,20.39-1.35,32.1.41,2.57.39,4.99-1.39,5.38-3.99.39-2.57-1.39-4.99-3.99-5.38-11.18-1.7-21.61-1.9-31.15-.87-.15-.56-.31-1.1-.44-1.64-.44-1.74-.85-3.56-1.18-5.48-2.75-15.83.81-28.92,7.87-38.87,5.51-7.74,13.18-13.64,21.69-17.41,8.51-3.77,17.86-5.44,26.72-4.74,10.89.85,21.01,5.3,27.76,13.81,1.62,2.03,4.58,2.38,6.64.75,2.03-1.62,2.38-4.58.75-6.64-4.72-5.96-10.7-10.33-17.37-13.23,2.46-11.67,7.22-20.18,13.43-25.83,7.41-6.77,17.04-9.5,27.2-8.71,10.1.79,19,5.36,25.38,12.27,6.38,6.91,10.25,16.15,10.25,26.27h.02l-.02,356.42Z"/><path class="uuid-9d24f5b9-6777-4df6-a237-ed112fe4b956" d="M358.53,391.69c1.88-1.82,4.86-1.78,6.67.1,1.82,1.88,1.78,4.86-.1,6.67-6.31,6.09-9.4,12.52-9.31,19.27.04,2.26.41,4.59,1.14,7,.04.1.06.17.08.27,1.57,4.93,4.59,10.16,9.11,15.67,1.66,2.03,1.35,5.01-.66,6.66-2.03,1.66-5.01,1.35-6.67-.66-1.82-2.22-3.44-4.43-4.86-6.6-1.51,3.23-3.52,6.25-6.07,9.11-5.61,6.29-13.72,11.59-24.34,15.92-2.42.99-5.18-.19-6.15-2.61-.99-2.42.19-5.18,2.61-6.17,9.25-3.77,16.19-8.24,20.84-13.43,4.2-4.7,6.5-10.06,6.91-16.04-.87-3.04-1.32-6.04-1.35-9-.14-9.48,3.91-18.21,12.15-26.18h0Z"/><path class="uuid-9d24f5b9-6777-4df6-a237-ed112fe4b956" d="M404.77,342.3c-.1.14-.19.25-.31.37-4.12,4.95-9.92,8.24-17.43,9.87-2.82.6-5.94.99-9.34,1.1-2.61.1-4.8-1.95-4.89-4.55-.1-2.61,1.95-4.8,4.55-4.89,2.75-.1,5.32-.41,7.68-.91,5.18-1.12,9.15-3.23,11.9-6.35,1.14-2.44,2.4-4.72,3.73-6.87,1.04-3.33,1.47-7.27,1.3-11.86-.14-3.85-.74-8.18-1.76-12.98-.56-2.55,1.06-5.07,3.62-5.63s5.07,1.06,5.63,3.62c1.1,5.11,1.74,9.87,1.93,14.26,2.36-2.01,4.89-3.77,7.58-5.3,9.5-5.38,20.97-7.7,34.4-6.96,2.61.14,4.6,2.38,4.47,4.97-.14,2.61-2.38,4.6-4.97,4.47-11.59-.64-21.34,1.28-29.23,5.75-5.69,3.23-10.51,7.84-14.41,13.81-.87,2.4-1.97,4.59-3.35,6.56-.31.56-.7,1.04-1.08,1.53h0Z"/><path class="uuid-9d24f5b9-6777-4df6-a237-ed112fe4b956" d="M411.98,421.44c-2.36-1.14-3.35-3.97-2.21-6.31,1.14-2.36,3.97-3.35,6.31-2.21,7.45,3.6,13.14,7.41,17.08,11.4,4.59,4.62,6.93,9.56,7.06,14.82.12,5.17-1.95,10.33-6.21,15.46-4.12,4.97-10.39,10.04-18.82,15.19-2.22,1.35-5.15.66-6.5-1.57-1.35-2.22-.66-5.15,1.57-6.5,7.53-4.59,13-8.98,16.46-13.16,2.77-3.35,4.14-6.44,4.06-9.25-.06-2.73-1.51-5.51-4.31-8.34-3.19-3.21-8.01-6.38-14.49-9.54h0Z"/><path class="uuid-9d24f5b9-6777-4df6-a237-ed112fe4b956" d="M390.9,512.95c-1.93-1.74-2.11-4.74-.35-6.67,1.74-1.95,4.74-2.11,6.67-.35,10.72,9.65,15.54,19.42,14.49,29.29-.31,2.88-1.12,5.75-2.46,8.55,1.33-.29,2.63-.48,3.91-.56,8.49-.48,15.26,3.81,22.21,15.38,1.33,2.24.6,5.15-1.63,6.48-2.24,1.33-5.15.6-6.48-1.63-4.82-8.03-8.94-11.05-13.58-10.8-5.44.31-12.56,4.37-22.17,10.21l-.02.02c-2.13,1.51-5.09.99-6.6-1.14-1.51-2.13-.99-5.09,1.14-6.6,10.12-7.1,15.54-14.08,16.25-20.91.74-6.69-3.08-13.77-11.4-21.28h0Z"/><path class="uuid-9d24f5b9-6777-4df6-a237-ed112fe4b956" d="M715.74,457.35c-5.01-14.61-17.99-28.27-40.39-37.38,22.38-9.11,35.38-22.77,40.39-37.38,2.94-8.53,3.15-17.37.93-25.83-2.19-8.32-6.75-16.27-13.41-23.14-9.5-9.81-23.31-17.45-40.57-20.95l.19-.72c.54-2.11,1.01-4.2,1.35-6.25,3.21-18.53-1.06-34.05-9.52-45.93-6.54-9.19-15.55-16.13-25.54-20.56h-.02c-9.96-4.45-20.91-6.38-31.28-5.57-2.73.21-5.42.6-8.03,1.2-2.96-13.25-8.67-23.12-16.08-29.89-9.48-8.65-21.61-12.17-34.32-11.16-12.54.99-23.64,6.69-31.59,15.3-7.95,8.61-12.77,20.12-12.77,32.7h.02l.02,356.4c0,12.3,4.57,23.58,12.21,32.11,7.64,8.55,18.34,14.36,30.57,15.73,13.02,1.47,25.5-1.76,35.29-10.35,7.64-6.71,13.52-16.66,16.56-30.12h0c2.92.75,5.9,1.26,8.92,1.53,10.47.91,21.36-1.06,31.23-5.57,9.87-4.51,18.73-11.57,25.11-20.86,8.32-12.07,12.46-27.82,9.23-46.43-.35-2.05-.79-4.14-1.35-6.25l-.19-.72c17.26-3.5,31.07-11.14,40.57-20.95,6.65-6.87,11.22-14.8,13.41-23.14,2.22-8.45,2.01-17.3-.93-25.83ZM707.5,480.78c-1.78,6.77-5.53,13.27-11.05,18.96-9.09,9.38-22.85,16.5-40.3,19.09-.17.02-.35.04-.52.08-9.63,1.37-20.39,1.35-32.1-.41-2.59-.39-4.99,1.39-5.38,3.99-.39,2.59,1.39,4.99,3.99,5.38,11.18,1.68,21.61,1.88,31.15.87.15.56.31,1.1.45,1.64.44,1.72.85,3.56,1.18,5.48,2.77,15.96-.68,29.33-7.68,39.49-5.4,7.84-12.88,13.81-21.26,17.64-8.38,3.83-17.61,5.49-26.49,4.72-10.95-.95-21.3-5.67-28.67-14.66-1.64-2.03-4.62-2.34-6.64-.68-2.03,1.64-2.32,4.62-.68,6.64,4.89,5.98,10.81,10.43,17.3,13.45-2.5,11.98-7.41,20.6-13.81,26.21-7.66,6.73-17.59,9.23-28.03,8.07-9.85-1.1-18.46-5.77-24.57-12.61-6.13-6.85-9.81-15.92-9.81-25.83v-33.64h57.54c2.61,0,4.74-2.13,4.74-4.74v-22.25c1.49-.35,2.98-.87,4.43-1.55l.02-.02c5.24-2.53,8.98-6.96,10.78-12.07,1.78-5.09,1.63-10.87-.91-16.13l-.02-.02c-2.53-5.24-6.96-9-12.07-10.78-5.11-1.78-10.89-1.63-16.15.91-5.24,2.53-8.98,6.96-10.78,12.07-1.78,5.11-1.63,10.89.91,16.15,2.53,5.24,6.96,9,12.07,10.78.74.25,1.47.46,2.22.64v17.51l-52.8-.02v-76.59h123.1c.15.62.33,1.22.54,1.82,1.78,5.11,5.51,9.54,10.78,12.07,5.26,2.53,11.05,2.69,16.15.91,5.11-1.78,9.54-5.51,12.07-10.78,2.53-5.24,2.69-11.05.91-16.13h0c-1.78-5.11-5.51-9.54-10.78-12.07s-11.05-2.69-16.15-.91c-5.11,1.78-9.54,5.51-12.07,10.78-.75,1.59-1.3,3.21-1.64,4.84h-122.91v-44.38h68.56c.17.75.39,1.51.64,2.22,1.78,5.11,5.51,9.54,10.78,12.07,5.24,2.53,11.05,2.69,16.13.91,5.11-1.78,9.54-5.51,12.07-10.78s2.69-11.05.91-16.13c-1.78-5.11-5.51-9.54-10.78-12.07-5.26-2.53-11.05-2.69-16.15-.91-5.11,1.78-9.54,5.51-12.07,10.78-.7,1.45-1.22,2.94-1.57,4.45h-68.53v-42.5h123.12c.15.6.33,1.18.52,1.76,1.78,5.11,5.51,9.54,10.78,12.07l.02.02c5.24,2.52,11.03,2.69,16.13.91,5.11-1.78,9.54-5.51,12.07-10.78l.02-.02c2.52-5.24,2.69-11.03.91-16.13-1.78-5.11-5.51-9.54-10.78-12.07h-.02c-5.24-2.53-11.03-2.69-16.13-.91-5.11,1.78-9.54,5.51-12.07,10.78v.02c-.77,1.61-1.32,3.23-1.66,4.89l-122.91-.02v-78.43h52.8v17.51c-.75.17-1.51.39-2.22.64-5.11,1.78-9.54,5.51-12.07,10.78v.02c-2.53,5.24-2.69,11.03-.91,16.13,1.78,5.11,5.51,9.54,10.78,12.07l.02.02c5.24,2.52,11.03,2.69,16.13.91,5.11-1.78,9.54-5.51,12.07-10.78l.02-.02c2.53-5.24,2.69-11.03.91-16.13-1.78-5.11-5.51-9.54-10.78-12.07h-.02c-1.45-.7-2.92-1.2-4.43-1.55l-.02-22.29c0-2.61-2.13-4.74-4.74-4.74l-57.54.02v-33.53h.02c0-10.12,3.87-19.37,10.25-26.27,6.38-6.91,15.28-11.47,25.38-12.27,10.16-.79,19.79,1.93,27.2,8.71,6.21,5.65,10.97,14.16,13.43,25.83-6.67,2.9-12.65,7.27-17.37,13.23-1.63,2.05-1.28,5.01.75,6.64,2.05,1.63,5.01,1.28,6.64-.75,6.75-8.51,16.87-12.96,27.76-13.81,8.86-.7,18.21.97,26.72,4.74,8.51,3.77,16.17,9.67,21.69,17.41,7.06,9.94,10.62,23.04,7.87,38.87-.33,1.92-.74,3.73-1.18,5.48-.14.54-.29,1.08-.45,1.64-9.54-1.03-19.97-.83-31.15.87-2.59.39-4.37,2.81-3.99,5.38.39,2.59,2.81,4.37,5.38,3.99,11.7-1.76,22.46-1.78,32.1-.41.17.04.37.06.54.08,17.47,2.59,31.21,9.71,40.3,19.09,5.51,5.69,9.27,12.19,11.05,18.96,1.74,6.66,1.59,13.62-.74,20.35-5.01,14.57-20.02,28.17-47.3,35.89-1.55.43-2.84,1.63-3.31,3.29-.72,2.51.75,5.13,3.27,5.82,27.32,7.72,42.33,21.34,47.34,35.89,2.32,6.73,2.5,13.7.74,20.35ZM558.24,528.03c-2.82-.99-5.26-3.06-6.67-5.96-1.39-2.9-1.49-6.09-.5-8.92.99-2.82,3.06-5.26,5.96-6.67,2.9-1.39,6.09-1.49,8.92-.5,2.73.95,5.13,2.92,6.54,5.69.08.17.15.35.25.52h0c1.3,2.84,1.35,5.94.39,8.67-.95,2.73-2.92,5.13-5.69,6.54-.17.08-.35.15-.52.25-1.47.68-3,1.01-4.53,1.04-.08-.02-.17-.02-.27-.02s-.19.02-.29.02c-1.22-.04-2.44-.25-3.58-.66ZM636.48,473.41c0-1.72.37-3.46,1.16-5.11,1.41-2.9,3.85-4.97,6.67-5.96,2.82-.99,6.02-.89,8.92.5,2.9,1.41,4.97,3.85,5.96,6.67.99,2.84.89,6.04-.5,8.94h0c-1.41,2.9-3.85,4.97-6.67,5.94-2.82.99-6.02.89-8.92-.5-2.9-1.41-4.97-3.85-5.96-6.67-.37-1.06-.58-2.19-.64-3.33v-.12c0-.12,0-.25-.02-.37ZM582.04,419.64c.04-1.61.41-3.23,1.16-4.78,1.41-2.9,3.85-4.97,6.67-5.96,2.82-.99,6.02-.91,8.92.5,2.9,1.39,4.97,3.83,5.96,6.66.99,2.82.91,6.04-.5,8.94-1.41,2.92-3.85,4.97-6.66,5.96-2.82.99-6.04.91-8.94-.5-2.9-1.41-4.97-3.85-5.96-6.67-.41-1.14-.62-2.36-.66-3.58.02-.08.02-.17.02-.27s-.02-.19-.02-.29ZM652.01,378.5c-2.73.95-5.82.89-8.67-.39-.17-.1-.35-.17-.52-.25-2.77-1.43-4.74-3.81-5.69-6.54-.37-1.03-.58-2.13-.64-3.23v-.14c0-.14,0-.29-.02-.43,0-1.63.33-3.27,1.04-4.86.1-.17.17-.35.25-.52,1.43-2.77,3.81-4.74,6.54-5.69,2.73-.95,5.82-.91,8.67.39.17.1.35.17.52.25,2.77,1.43,4.74,3.81,5.69,6.54.95,2.73.89,5.82-.39,8.67-.1.17-.17.35-.25.52h0c-1.41,2.77-3.81,4.74-6.54,5.67ZM558.26,311.85c1.14-.41,2.36-.62,3.58-.66.08.02.17.02.27.02.08,0,.17-.02.27-.02,1.51.04,3.06.39,4.53,1.04.17.1.35.17.52.25,2.77,1.43,4.74,3.81,5.69,6.54.95,2.73.89,5.82-.39,8.67-.1.17-.17.35-.25.52-1.41,2.79-3.79,4.76-6.52,5.69-2.73.95-5.82.89-8.67-.39-.17-.1-.35-.17-.52-.25-2.77-1.43-4.74-3.81-5.69-6.54-.97-2.73-.91-5.82.39-8.67.1-.17.17-.35.25-.52,1.43-2.77,3.81-4.74,6.54-5.69Z"/></svg>